<svg width="186" height="220" viewBox="0 0 186 220" fill="none" xmlns="http://www.w3.org/2000/svg">
<path d="M79.5368 122.772L124.5 120.66C124.5 120.66 186 115.768 186 76.6292C186 37.4906 154.931 0 97.3497 0C41.0111 0 9.94209 35.4307 8.28508 73.7453H49.7105C51.7817 50.2622 74.5657 38.7266 97.3497 38.7266C120.962 38.7266 144.575 52.9588 144.575 65C144.575 77.0412 141.5 87.5 81.608 89.8127C27.3408 89.8127 0 123.184 0 155.73C0 198.165 37.6971 220 76.2227 220C106.463 220 128.833 208.464 144.575 193.221V193.633L148.717 215.88H186V136.303H148C148 136.303 142.5 178.5 86.1648 182.921C55.51 182.921 41.8396 166.854 42.2539 151.199C42.6681 136.779 55.51 122.772 79.5368 122.772Z" fill="black"/>
</svg>
