<svg xmlns="http://www.w3.org/2000/svg" viewBox="0 0 1100 218" width="1100" height="218">
  <rect width="100%" height="100%" fill="#ffffff"/>
  <g font-family="'Courier New', Courier, monospace" font-size="13" fill="#0a0a0a">
    <text><tspan x="392" y="13">-</tspan><tspan x="399" y="13">@</tspan><tspan x="406" y="13">@</tspan><tspan x="413" y="13">@</tspan></text>
    <text><tspan x="392" y="26">?</tspan><tspan x="399" y="26">@</tspan><tspan x="406" y="26">@</tspan><tspan x="413" y="26">@</tspan></text>
    <text><tspan x="49" y="39">-</tspan><tspan x="56" y="39">=</tspan><tspan x="63" y="39">+</tspan><tspan x="70" y="39">+</tspan><tspan x="77" y="39">+</tspan><tspan x="84" y="39">+</tspan><tspan x="91" y="39">+</tspan><tspan x="98" y="39">-</tspan><tspan x="252" y="39">:</tspan><tspan x="259" y="39">:</tspan><tspan x="266" y="39">:</tspan><tspan x="273" y="39">:</tspan><tspan x="280" y="39">:</tspan><tspan x="385" y="39">*</tspan><tspan x="392" y="39">@</tspan><tspan x="399" y="39">@</tspan><tspan x="406" y="39">@</tspan><tspan x="413" y="39">@</tspan><tspan x="532" y="39">,</tspan><tspan x="539" y="39">:</tspan><tspan x="546" y="39">:</tspan><tspan x="553" y="39">:</tspan><tspan x="560" y="39">:</tspan><tspan x="567" y="39">:</tspan><tspan x="735" y="39">:</tspan><tspan x="742" y="39">:</tspan><tspan x="749" y="39">:</tspan><tspan x="840" y="39">,</tspan><tspan x="847" y="39">:</tspan><tspan x="854" y="39">:</tspan><tspan x="861" y="39">:</tspan><tspan x="868" y="39">,</tspan><tspan x="1008" y="39">:</tspan><tspan x="1015" y="39">:</tspan><tspan x="1022" y="39">:</tspan><tspan x="1029" y="39">:</tspan><tspan x="1036" y="39">:</tspan></text>
    <text><tspan x="28" y="52">=</tspan><tspan x="35" y="52">S</tspan><tspan x="42" y="52">@</tspan><tspan x="49" y="52">@</tspan><tspan x="56" y="52">@</tspan><tspan x="63" y="52">@</tspan><tspan x="70" y="52">@</tspan><tspan x="77" y="52">@</tspan><tspan x="84" y="52">@</tspan><tspan x="91" y="52">@</tspan><tspan x="98" y="52">@</tspan><tspan x="105" y="52">@</tspan><tspan x="112" y="52">#</tspan><tspan x="119" y="52">%</tspan><tspan x="126" y="52">~</tspan><tspan x="175" y="52">+</tspan><tspan x="182" y="52">@</tspan><tspan x="189" y="52">@</tspan><tspan x="196" y="52">@</tspan><tspan x="203" y="52">@</tspan><tspan x="224" y="52">~</tspan><tspan x="231" y="52">*</tspan><tspan x="238" y="52">S</tspan><tspan x="245" y="52">@</tspan><tspan x="252" y="52">@</tspan><tspan x="259" y="52">@</tspan><tspan x="266" y="52">@</tspan><tspan x="273" y="52">@</tspan><tspan x="280" y="52">@</tspan><tspan x="287" y="52">@</tspan><tspan x="294" y="52">%</tspan><tspan x="301" y="52">+</tspan><tspan x="308" y="52">,</tspan><tspan x="350" y="52">-</tspan><tspan x="357" y="52">+</tspan><tspan x="364" y="52">+</tspan><tspan x="371" y="52">%</tspan><tspan x="378" y="52">@</tspan><tspan x="385" y="52">@</tspan><tspan x="392" y="52">@</tspan><tspan x="399" y="52">@</tspan><tspan x="406" y="52">@</tspan><tspan x="413" y="52">@</tspan><tspan x="420" y="52">@</tspan><tspan x="427" y="52">@</tspan><tspan x="434" y="52">@</tspan><tspan x="441" y="52">@</tspan><tspan x="448" y="52">@</tspan><tspan x="455" y="52">@</tspan><tspan x="504" y="52">,</tspan><tspan x="511" y="52">+</tspan><tspan x="518" y="52">%</tspan><tspan x="525" y="52">@</tspan><tspan x="532" y="52">@</tspan><tspan x="539" y="52">@</tspan><tspan x="546" y="52">@</tspan><tspan x="553" y="52">@</tspan><tspan x="560" y="52">@</tspan><tspan x="567" y="52">@</tspan><tspan x="574" y="52">@</tspan><tspan x="581" y="52">S</tspan><tspan x="588" y="52">?</tspan><tspan x="595" y="52">+</tspan><tspan x="602" y="52">,</tspan><tspan x="651" y="52">~</tspan><tspan x="658" y="52">@</tspan><tspan x="665" y="52">@</tspan><tspan x="672" y="52">@</tspan><tspan x="679" y="52">@</tspan><tspan x="686" y="52">-</tspan><tspan x="700" y="52">~</tspan><tspan x="707" y="52">?</tspan><tspan x="714" y="52">S</tspan><tspan x="721" y="52">@</tspan><tspan x="728" y="52">@</tspan><tspan x="735" y="52">@</tspan><tspan x="742" y="52">@</tspan><tspan x="749" y="52">@</tspan><tspan x="756" y="52">@</tspan><tspan x="763" y="52">*</tspan><tspan x="805" y="52">=</tspan><tspan x="812" y="52">?</tspan><tspan x="819" y="52">S</tspan><tspan x="826" y="52">@</tspan><tspan x="833" y="52">@</tspan><tspan x="840" y="52">@</tspan><tspan x="847" y="52">@</tspan><tspan x="854" y="52">@</tspan><tspan x="861" y="52">@</tspan><tspan x="868" y="52">@</tspan><tspan x="875" y="52">#</tspan><tspan x="882" y="52">?</tspan><tspan x="889" y="52">~</tspan><tspan x="973" y="52">,</tspan><tspan x="980" y="52">+</tspan><tspan x="987" y="52">%</tspan><tspan x="994" y="52">@</tspan><tspan x="1001" y="52">@</tspan><tspan x="1008" y="52">@</tspan><tspan x="1015" y="52">@</tspan><tspan x="1022" y="52">@</tspan><tspan x="1029" y="52">@</tspan><tspan x="1036" y="52">@</tspan><tspan x="1043" y="52">@</tspan><tspan x="1050" y="52">#</tspan><tspan x="1057" y="52">%</tspan><tspan x="1064" y="52">*</tspan><tspan x="1071" y="52">~</tspan></text>
    <text><tspan x="14" y="65">~</tspan><tspan x="21" y="65">#</tspan><tspan x="28" y="65">@</tspan><tspan x="35" y="65">@</tspan><tspan x="42" y="65">@</tspan><tspan x="49" y="65">@</tspan><tspan x="56" y="65">@</tspan><tspan x="63" y="65">@</tspan><tspan x="70" y="65">@</tspan><tspan x="77" y="65">@</tspan><tspan x="84" y="65">@</tspan><tspan x="91" y="65">@</tspan><tspan x="98" y="65">@</tspan><tspan x="105" y="65">@</tspan><tspan x="112" y="65">@</tspan><tspan x="119" y="65">@</tspan><tspan x="126" y="65">@</tspan><tspan x="133" y="65">S</tspan><tspan x="140" y="65">-</tspan><tspan x="175" y="65">+</tspan><tspan x="182" y="65">@</tspan><tspan x="189" y="65">@</tspan><tspan x="196" y="65">@</tspan><tspan x="203" y="65">@</tspan><tspan x="210" y="65">%</tspan><tspan x="217" y="65">#</tspan><tspan x="224" y="65">@</tspan><tspan x="231" y="65">@</tspan><tspan x="238" y="65">@</tspan><tspan x="245" y="65">@</tspan><tspan x="252" y="65">@</tspan><tspan x="259" y="65">@</tspan><tspan x="266" y="65">@</tspan><tspan x="273" y="65">@</tspan><tspan x="280" y="65">@</tspan><tspan x="287" y="65">@</tspan><tspan x="294" y="65">@</tspan><tspan x="301" y="65">@</tspan><tspan x="308" y="65">@</tspan><tspan x="315" y="65">?</tspan><tspan x="350" y="65">#</tspan><tspan x="357" y="65">@</tspan><tspan x="364" y="65">@</tspan><tspan x="371" y="65">@</tspan><tspan x="378" y="65">@</tspan><tspan x="385" y="65">@</tspan><tspan x="392" y="65">@</tspan><tspan x="399" y="65">@</tspan><tspan x="406" y="65">@</tspan><tspan x="413" y="65">@</tspan><tspan x="420" y="65">@</tspan><tspan x="427" y="65">@</tspan><tspan x="434" y="65">@</tspan><tspan x="441" y="65">@</tspan><tspan x="448" y="65">@</tspan><tspan x="455" y="65">@</tspan><tspan x="497" y="65">?</tspan><tspan x="504" y="65">@</tspan><tspan x="511" y="65">@</tspan><tspan x="518" y="65">@</tspan><tspan x="525" y="65">@</tspan><tspan x="532" y="65">@</tspan><tspan x="539" y="65">@</tspan><tspan x="546" y="65">@</tspan><tspan x="553" y="65">@</tspan><tspan x="560" y="65">@</tspan><tspan x="567" y="65">@</tspan><tspan x="574" y="65">@</tspan><tspan x="581" y="65">@</tspan><tspan x="588" y="65">@</tspan><tspan x="595" y="65">@</tspan><tspan x="602" y="65">@</tspan><tspan x="609" y="65">*</tspan><tspan x="616" y="65">,</tspan><tspan x="651" y="65">~</tspan><tspan x="658" y="65">@</tspan><tspan x="665" y="65">@</tspan><tspan x="672" y="65">@</tspan><tspan x="679" y="65">@</tspan><tspan x="686" y="65">S</tspan><tspan x="693" y="65">#</tspan><tspan x="700" y="65">@</tspan><tspan x="707" y="65">@</tspan><tspan x="714" y="65">@</tspan><tspan x="721" y="65">@</tspan><tspan x="728" y="65">@</tspan><tspan x="735" y="65">@</tspan><tspan x="742" y="65">@</tspan><tspan x="749" y="65">@</tspan><tspan x="756" y="65">@</tspan><tspan x="763" y="65">#</tspan><tspan x="770" y="65">-</tspan><tspan x="791" y="65">*</tspan><tspan x="798" y="65">@</tspan><tspan x="805" y="65">@</tspan><tspan x="812" y="65">@</tspan><tspan x="819" y="65">@</tspan><tspan x="826" y="65">@</tspan><tspan x="833" y="65">@</tspan><tspan x="840" y="65">@</tspan><tspan x="847" y="65">@</tspan><tspan x="854" y="65">@</tspan><tspan x="861" y="65">@</tspan><tspan x="868" y="65">@</tspan><tspan x="875" y="65">@</tspan><tspan x="882" y="65">@</tspan><tspan x="889" y="65">@</tspan><tspan x="896" y="65">@</tspan><tspan x="903" y="65">*</tspan><tspan x="910" y="65">,</tspan><tspan x="966" y="65">%</tspan><tspan x="973" y="65">@</tspan><tspan x="980" y="65">@</tspan><tspan x="987" y="65">@</tspan><tspan x="994" y="65">@</tspan><tspan x="1001" y="65">@</tspan><tspan x="1008" y="65">@</tspan><tspan x="1015" y="65">@</tspan><tspan x="1022" y="65">@</tspan><tspan x="1029" y="65">@</tspan><tspan x="1036" y="65">@</tspan><tspan x="1043" y="65">@</tspan><tspan x="1050" y="65">@</tspan><tspan x="1057" y="65">@</tspan><tspan x="1064" y="65">@</tspan><tspan x="1071" y="65">@</tspan><tspan x="1078" y="65">#</tspan><tspan x="1085" y="65">:</tspan></text>
    <text><tspan x="7" y="78">=</tspan><tspan x="14" y="78">@</tspan><tspan x="21" y="78">@</tspan><tspan x="28" y="78">@</tspan><tspan x="35" y="78">@</tspan><tspan x="42" y="78">@</tspan><tspan x="49" y="78">*</tspan><tspan x="56" y="78">~</tspan><tspan x="63" y="78">:</tspan><tspan x="98" y="78">-</tspan><tspan x="105" y="78">*</tspan><tspan x="112" y="78">#</tspan><tspan x="119" y="78">@</tspan><tspan x="126" y="78">@</tspan><tspan x="133" y="78">@</tspan><tspan x="140" y="78">@</tspan><tspan x="147" y="78">,</tspan><tspan x="175" y="78">+</tspan><tspan x="182" y="78">@</tspan><tspan x="189" y="78">@</tspan><tspan x="196" y="78">@</tspan><tspan x="203" y="78">@</tspan><tspan x="210" y="78">@</tspan><tspan x="217" y="78">@</tspan><tspan x="224" y="78">S</tspan><tspan x="231" y="78">~</tspan><tspan x="238" y="78">,</tspan><tspan x="273" y="78">:</tspan><tspan x="280" y="78">+</tspan><tspan x="287" y="78">#</tspan><tspan x="294" y="78">@</tspan><tspan x="301" y="78">@</tspan><tspan x="308" y="78">@</tspan><tspan x="315" y="78">@</tspan><tspan x="322" y="78">S</tspan><tspan x="350" y="78">:</tspan><tspan x="357" y="78">:</tspan><tspan x="364" y="78">:</tspan><tspan x="371" y="78">-</tspan><tspan x="378" y="78">*</tspan><tspan x="385" y="78">@</tspan><tspan x="392" y="78">%</tspan><tspan x="399" y="78">=</tspan><tspan x="406" y="78">:</tspan><tspan x="413" y="78">:</tspan><tspan x="420" y="78">:</tspan><tspan x="427" y="78">:</tspan><tspan x="434" y="78">:</tspan><tspan x="441" y="78">:</tspan><tspan x="448" y="78">:</tspan><tspan x="455" y="78">:</tspan><tspan x="490" y="78">#</tspan><tspan x="497" y="78">@</tspan><tspan x="504" y="78">@</tspan><tspan x="511" y="78">@</tspan><tspan x="518" y="78">@</tspan><tspan x="525" y="78">%</tspan><tspan x="532" y="78">~</tspan><tspan x="539" y="78">:</tspan><tspan x="546" y="78">,</tspan><tspan x="574" y="78">:</tspan><tspan x="581" y="78">*</tspan><tspan x="588" y="78">@</tspan><tspan x="595" y="78">@</tspan><tspan x="602" y="78">@</tspan><tspan x="609" y="78">@</tspan><tspan x="616" y="78">#</tspan><tspan x="651" y="78">~</tspan><tspan x="658" y="78">@</tspan><tspan x="665" y="78">@</tspan><tspan x="672" y="78">@</tspan><tspan x="679" y="78">@</tspan><tspan x="686" y="78">@</tspan><tspan x="693" y="78">@</tspan><tspan x="700" y="78">S</tspan><tspan x="707" y="78">+</tspan><tspan x="714" y="78">~</tspan><tspan x="721" y="78">-</tspan><tspan x="728" y="78">~</tspan><tspan x="735" y="78">*</tspan><tspan x="742" y="78">#</tspan><tspan x="749" y="78">@</tspan><tspan x="756" y="78">+</tspan><tspan x="777" y="78">-</tspan><tspan x="784" y="78">@</tspan><tspan x="791" y="78">@</tspan><tspan x="798" y="78">@</tspan><tspan x="805" y="78">@</tspan><tspan x="812" y="78">@</tspan><tspan x="819" y="78">@</tspan><tspan x="826" y="78">S</tspan><tspan x="833" y="78">+</tspan><tspan x="840" y="78">~</tspan><tspan x="847" y="78">-</tspan><tspan x="854" y="78">:</tspan><tspan x="861" y="78">-</tspan><tspan x="868" y="78">+</tspan><tspan x="875" y="78">%</tspan><tspan x="882" y="78">@</tspan><tspan x="889" y="78">@</tspan><tspan x="896" y="78">@</tspan><tspan x="903" y="78">@</tspan><tspan x="910" y="78">@</tspan><tspan x="917" y="78">~</tspan><tspan x="959" y="78">S</tspan><tspan x="966" y="78">@</tspan><tspan x="973" y="78">@</tspan><tspan x="980" y="78">@</tspan><tspan x="987" y="78">@</tspan><tspan x="994" y="78">?</tspan><tspan x="1001" y="78">~</tspan><tspan x="1043" y="78">,</tspan><tspan x="1050" y="78">+</tspan><tspan x="1057" y="78">@</tspan><tspan x="1064" y="78">@</tspan><tspan x="1071" y="78">@</tspan><tspan x="1078" y="78">@</tspan><tspan x="1085" y="78">#</tspan></text>
    <text><tspan x="7" y="91">#</tspan><tspan x="14" y="91">@</tspan><tspan x="21" y="91">@</tspan><tspan x="28" y="91">@</tspan><tspan x="35" y="91">@</tspan><tspan x="42" y="91">:</tspan><tspan x="119" y="91">@</tspan><tspan x="126" y="91">@</tspan><tspan x="133" y="91">@</tspan><tspan x="140" y="91">@</tspan><tspan x="147" y="91">?</tspan><tspan x="175" y="91">+</tspan><tspan x="182" y="91">@</tspan><tspan x="189" y="91">@</tspan><tspan x="196" y="91">@</tspan><tspan x="203" y="91">@</tspan><tspan x="210" y="91">@</tspan><tspan x="217" y="91">=</tspan><tspan x="294" y="91">%</tspan><tspan x="301" y="91">@</tspan><tspan x="308" y="91">@</tspan><tspan x="315" y="91">@</tspan><tspan x="322" y="91">@</tspan><tspan x="329" y="91">+</tspan><tspan x="385" y="91">#</tspan><tspan x="392" y="91">@</tspan><tspan x="399" y="91">@</tspan><tspan x="406" y="91">%</tspan><tspan x="413" y="91">,</tspan><tspan x="483" y="91">*</tspan><tspan x="490" y="91">@</tspan><tspan x="497" y="91">@</tspan><tspan x="504" y="91">@</tspan><tspan x="511" y="91">@</tspan><tspan x="518" y="91">+</tspan><tspan x="588" y="91">-</tspan><tspan x="595" y="91">@</tspan><tspan x="602" y="91">@</tspan><tspan x="609" y="91">@</tspan><tspan x="616" y="91">@</tspan><tspan x="623" y="91">*</tspan><tspan x="651" y="91">~</tspan><tspan x="658" y="91">@</tspan><tspan x="665" y="91">@</tspan><tspan x="672" y="91">@</tspan><tspan x="679" y="91">@</tspan><tspan x="686" y="91">@</tspan><tspan x="693" y="91">~</tspan><tspan x="770" y="91">,</tspan><tspan x="777" y="91">@</tspan><tspan x="784" y="91">@</tspan><tspan x="791" y="91">@</tspan><tspan x="798" y="91">@</tspan><tspan x="805" y="91">@</tspan><tspan x="812" y="91">?</tspan><tspan x="819" y="91">,</tspan><tspan x="882" y="91">,</tspan><tspan x="889" y="91">S</tspan><tspan x="896" y="91">@</tspan><tspan x="903" y="91">@</tspan><tspan x="910" y="91">@</tspan><tspan x="917" y="91">@</tspan><tspan x="924" y="91">-</tspan><tspan x="952" y="91">-</tspan><tspan x="959" y="91">@</tspan><tspan x="966" y="91">@</tspan><tspan x="973" y="91">@</tspan><tspan x="980" y="91">@</tspan><tspan x="987" y="91">%</tspan><tspan x="1057" y="91">+</tspan><tspan x="1064" y="91">%</tspan><tspan x="1071" y="91">%</tspan><tspan x="1078" y="91">%</tspan><tspan x="1085" y="91">%</tspan><tspan x="1092" y="91">:</tspan></text>
    <text><tspan x="91" y="104">:</tspan><tspan x="98" y="104">:</tspan><tspan x="105" y="104">~</tspan><tspan x="112" y="104">%</tspan><tspan x="119" y="104">@</tspan><tspan x="126" y="104">@</tspan><tspan x="133" y="104">@</tspan><tspan x="140" y="104">@</tspan><tspan x="147" y="104">%</tspan><tspan x="175" y="104">+</tspan><tspan x="182" y="104">@</tspan><tspan x="189" y="104">@</tspan><tspan x="196" y="104">@</tspan><tspan x="203" y="104">@</tspan><tspan x="210" y="104">+</tspan><tspan x="301" y="104">@</tspan><tspan x="308" y="104">@</tspan><tspan x="315" y="104">@</tspan><tspan x="322" y="104">@</tspan><tspan x="329" y="104">S</tspan><tspan x="385" y="104">S</tspan><tspan x="392" y="104">@</tspan><tspan x="399" y="104">@</tspan><tspan x="406" y="104">@</tspan><tspan x="413" y="104">S</tspan><tspan x="483" y="104">,</tspan><tspan x="490" y="104">:</tspan><tspan x="497" y="104">:</tspan><tspan x="504" y="104">:</tspan><tspan x="511" y="104">:</tspan><tspan x="595" y="104">#</tspan><tspan x="602" y="104">@</tspan><tspan x="609" y="104">@</tspan><tspan x="616" y="104">@</tspan><tspan x="623" y="104">S</tspan><tspan x="651" y="104">~</tspan><tspan x="658" y="104">@</tspan><tspan x="665" y="104">@</tspan><tspan x="672" y="104">@</tspan><tspan x="679" y="104">@</tspan><tspan x="686" y="104">%</tspan><tspan x="770" y="104">+</tspan><tspan x="777" y="104">@</tspan><tspan x="784" y="104">@</tspan><tspan x="791" y="104">@</tspan><tspan x="798" y="104">@</tspan><tspan x="805" y="104">*</tspan><tspan x="896" y="104">@</tspan><tspan x="903" y="104">@</tspan><tspan x="910" y="104">@</tspan><tspan x="917" y="104">@</tspan><tspan x="924" y="104">?</tspan><tspan x="959" y="104">@</tspan><tspan x="966" y="104">@</tspan><tspan x="973" y="104">@</tspan><tspan x="980" y="104">@</tspan><tspan x="987" y="104">@</tspan><tspan x="994" y="104">?</tspan><tspan x="1001" y="104">~</tspan><tspan x="1008" y="104">,</tspan></text>
    <text><tspan x="21" y="117">,</tspan><tspan x="28" y="117">=</tspan><tspan x="35" y="117">%</tspan><tspan x="42" y="117">#</tspan><tspan x="49" y="117">@</tspan><tspan x="56" y="117">@</tspan><tspan x="63" y="117">@</tspan><tspan x="70" y="117">@</tspan><tspan x="77" y="117">@</tspan><tspan x="84" y="117">@</tspan><tspan x="91" y="117">@</tspan><tspan x="98" y="117">@</tspan><tspan x="105" y="117">@</tspan><tspan x="112" y="117">@</tspan><tspan x="119" y="117">@</tspan><tspan x="126" y="117">@</tspan><tspan x="133" y="117">@</tspan><tspan x="140" y="117">S</tspan><tspan x="147" y="117">,</tspan><tspan x="175" y="117">+</tspan><tspan x="182" y="117">@</tspan><tspan x="189" y="117">@</tspan><tspan x="196" y="117">@</tspan><tspan x="203" y="117">@</tspan><tspan x="210" y="117">~</tspan><tspan x="301" y="117">#</tspan><tspan x="308" y="117">@</tspan><tspan x="315" y="117">@</tspan><tspan x="322" y="117">@</tspan><tspan x="329" y="117">@</tspan><tspan x="385" y="117">S</tspan><tspan x="392" y="117">@</tspan><tspan x="399" y="117">@</tspan><tspan x="406" y="117">@</tspan><tspan x="413" y="117">@</tspan><tspan x="504" y="117">,</tspan><tspan x="511" y="117">=</tspan><tspan x="518" y="117">*</tspan><tspan x="525" y="117">%</tspan><tspan x="532" y="117">%</tspan><tspan x="539" y="117">%</tspan><tspan x="546" y="117">%</tspan><tspan x="553" y="117">%</tspan><tspan x="560" y="117">%</tspan><tspan x="567" y="117">%</tspan><tspan x="574" y="117">%</tspan><tspan x="581" y="117">%</tspan><tspan x="588" y="117">%</tspan><tspan x="595" y="117">@</tspan><tspan x="602" y="117">@</tspan><tspan x="609" y="117">@</tspan><tspan x="616" y="117">@</tspan><tspan x="623" y="117">#</tspan><tspan x="651" y="117">~</tspan><tspan x="658" y="117">@</tspan><tspan x="665" y="117">@</tspan><tspan x="672" y="117">@</tspan><tspan x="679" y="117">@</tspan><tspan x="686" y="117">*</tspan><tspan x="770" y="117">?</tspan><tspan x="777" y="117">@</tspan><tspan x="784" y="117">@</tspan><tspan x="791" y="117">@</tspan><tspan x="798" y="117">@</tspan><tspan x="805" y="117">@</tspan><tspan x="812" y="117">@</tspan><tspan x="819" y="117">@</tspan><tspan x="826" y="117">@</tspan><tspan x="833" y="117">@</tspan><tspan x="840" y="117">@</tspan><tspan x="847" y="117">@</tspan><tspan x="854" y="117">@</tspan><tspan x="861" y="117">@</tspan><tspan x="868" y="117">@</tspan><tspan x="875" y="117">@</tspan><tspan x="882" y="117">@</tspan><tspan x="889" y="117">@</tspan><tspan x="896" y="117">@</tspan><tspan x="903" y="117">@</tspan><tspan x="910" y="117">@</tspan><tspan x="917" y="117">@</tspan><tspan x="924" y="117">#</tspan><tspan x="959" y="117">~</tspan><tspan x="966" y="117">#</tspan><tspan x="973" y="117">@</tspan><tspan x="980" y="117">@</tspan><tspan x="987" y="117">@</tspan><tspan x="994" y="117">@</tspan><tspan x="1001" y="117">@</tspan><tspan x="1008" y="117">@</tspan><tspan x="1015" y="117">@</tspan><tspan x="1022" y="117">@</tspan><tspan x="1029" y="117">%</tspan><tspan x="1036" y="117">*</tspan><tspan x="1043" y="117">+</tspan><tspan x="1050" y="117">=</tspan><tspan x="1057" y="117">~</tspan><tspan x="1064" y="117">,</tspan></text>
    <text><tspan x="7" y="130">-</tspan><tspan x="14" y="130">%</tspan><tspan x="21" y="130">@</tspan><tspan x="28" y="130">@</tspan><tspan x="35" y="130">@</tspan><tspan x="42" y="130">@</tspan><tspan x="49" y="130">@</tspan><tspan x="56" y="130">@</tspan><tspan x="63" y="130">@</tspan><tspan x="70" y="130">#</tspan><tspan x="77" y="130">#</tspan><tspan x="84" y="130">S</tspan><tspan x="91" y="130">S</tspan><tspan x="98" y="130">%</tspan><tspan x="105" y="130">%</tspan><tspan x="112" y="130">%</tspan><tspan x="119" y="130">*</tspan><tspan x="126" y="130">=</tspan><tspan x="133" y="130">:</tspan><tspan x="175" y="130">+</tspan><tspan x="182" y="130">@</tspan><tspan x="189" y="130">@</tspan><tspan x="196" y="130">@</tspan><tspan x="203" y="130">@</tspan><tspan x="210" y="130">~</tspan><tspan x="301" y="130">#</tspan><tspan x="308" y="130">@</tspan><tspan x="315" y="130">@</tspan><tspan x="322" y="130">@</tspan><tspan x="329" y="130">@</tspan><tspan x="385" y="130">S</tspan><tspan x="392" y="130">@</tspan><tspan x="399" y="130">@</tspan><tspan x="406" y="130">@</tspan><tspan x="413" y="130">@</tspan><tspan x="490" y="130">=</tspan><tspan x="497" y="130">S</tspan><tspan x="504" y="130">@</tspan><tspan x="511" y="130">@</tspan><tspan x="518" y="130">@</tspan><tspan x="525" y="130">@</tspan><tspan x="532" y="130">@</tspan><tspan x="539" y="130">@</tspan><tspan x="546" y="130">@</tspan><tspan x="553" y="130">@</tspan><tspan x="560" y="130">@</tspan><tspan x="567" y="130">@</tspan><tspan x="574" y="130">@</tspan><tspan x="581" y="130">@</tspan><tspan x="588" y="130">@</tspan><tspan x="595" y="130">@</tspan><tspan x="602" y="130">@</tspan><tspan x="609" y="130">@</tspan><tspan x="616" y="130">@</tspan><tspan x="623" y="130">#</tspan><tspan x="651" y="130">~</tspan><tspan x="658" y="130">@</tspan><tspan x="665" y="130">@</tspan><tspan x="672" y="130">@</tspan><tspan x="679" y="130">@</tspan><tspan x="686" y="130">*</tspan><tspan x="770" y="130">?</tspan><tspan x="777" y="130">@</tspan><tspan x="784" y="130">@</tspan><tspan x="791" y="130">@</tspan><tspan x="798" y="130">@</tspan><tspan x="805" y="130">@</tspan><tspan x="812" y="130">@</tspan><tspan x="819" y="130">@</tspan><tspan x="826" y="130">@</tspan><tspan x="833" y="130">@</tspan><tspan x="840" y="130">@</tspan><tspan x="847" y="130">@</tspan><tspan x="854" y="130">@</tspan><tspan x="861" y="130">@</tspan><tspan x="868" y="130">@</tspan><tspan x="875" y="130">@</tspan><tspan x="882" y="130">@</tspan><tspan x="889" y="130">@</tspan><tspan x="896" y="130">@</tspan><tspan x="903" y="130">@</tspan><tspan x="910" y="130">@</tspan><tspan x="917" y="130">@</tspan><tspan x="924" y="130">@</tspan><tspan x="973" y="130">~</tspan><tspan x="980" y="130">*</tspan><tspan x="987" y="130">@</tspan><tspan x="994" y="130">@</tspan><tspan x="1001" y="130">@</tspan><tspan x="1008" y="130">@</tspan><tspan x="1015" y="130">@</tspan><tspan x="1022" y="130">@</tspan><tspan x="1029" y="130">@</tspan><tspan x="1036" y="130">@</tspan><tspan x="1043" y="130">@</tspan><tspan x="1050" y="130">@</tspan><tspan x="1057" y="130">@</tspan><tspan x="1064" y="130">@</tspan><tspan x="1071" y="130">#</tspan><tspan x="1078" y="130">=</tspan></text>
    <text><tspan x="0" y="143">~</tspan><tspan x="7" y="143">@</tspan><tspan x="14" y="143">@</tspan><tspan x="21" y="143">@</tspan><tspan x="28" y="143">@</tspan><tspan x="35" y="143">S</tspan><tspan x="42" y="143">=</tspan><tspan x="49" y="143">:</tspan><tspan x="119" y="143">,</tspan><tspan x="126" y="143">:</tspan><tspan x="133" y="143">:</tspan><tspan x="140" y="143">:</tspan><tspan x="147" y="143">:</tspan><tspan x="175" y="143">+</tspan><tspan x="182" y="143">@</tspan><tspan x="189" y="143">@</tspan><tspan x="196" y="143">@</tspan><tspan x="203" y="143">@</tspan><tspan x="210" y="143">~</tspan><tspan x="301" y="143">#</tspan><tspan x="308" y="143">@</tspan><tspan x="315" y="143">@</tspan><tspan x="322" y="143">@</tspan><tspan x="329" y="143">@</tspan><tspan x="385" y="143">#</tspan><tspan x="392" y="143">@</tspan><tspan x="399" y="143">@</tspan><tspan x="406" y="143">@</tspan><tspan x="413" y="143">@</tspan><tspan x="483" y="143">S</tspan><tspan x="490" y="143">@</tspan><tspan x="497" y="143">@</tspan><tspan x="504" y="143">@</tspan><tspan x="511" y="143">@</tspan><tspan x="518" y="143">%</tspan><tspan x="525" y="143">+</tspan><tspan x="532" y="143">~</tspan><tspan x="539" y="143">:</tspan><tspan x="546" y="143">:</tspan><tspan x="553" y="143">:</tspan><tspan x="560" y="143">:</tspan><tspan x="567" y="143">:</tspan><tspan x="574" y="143">:</tspan><tspan x="581" y="143">:</tspan><tspan x="588" y="143">:</tspan><tspan x="595" y="143">@</tspan><tspan x="602" y="143">@</tspan><tspan x="609" y="143">@</tspan><tspan x="616" y="143">@</tspan><tspan x="623" y="143">#</tspan><tspan x="651" y="143">~</tspan><tspan x="658" y="143">@</tspan><tspan x="665" y="143">@</tspan><tspan x="672" y="143">@</tspan><tspan x="679" y="143">@</tspan><tspan x="686" y="143">*</tspan><tspan x="770" y="143">?</tspan><tspan x="777" y="143">@</tspan><tspan x="784" y="143">@</tspan><tspan x="791" y="143">@</tspan><tspan x="798" y="143">@</tspan><tspan x="805" y="143">=</tspan><tspan x="812" y="143">:</tspan><tspan x="819" y="143">:</tspan><tspan x="826" y="143">:</tspan><tspan x="833" y="143">:</tspan><tspan x="840" y="143">:</tspan><tspan x="847" y="143">:</tspan><tspan x="854" y="143">:</tspan><tspan x="861" y="143">:</tspan><tspan x="868" y="143">:</tspan><tspan x="875" y="143">:</tspan><tspan x="882" y="143">:</tspan><tspan x="889" y="143">:</tspan><tspan x="896" y="143">:</tspan><tspan x="903" y="143">:</tspan><tspan x="910" y="143">:</tspan><tspan x="917" y="143">:</tspan><tspan x="924" y="143">:</tspan><tspan x="1008" y="143">-</tspan><tspan x="1015" y="143">=</tspan><tspan x="1022" y="143">+</tspan><tspan x="1029" y="143">*</tspan><tspan x="1036" y="143">%</tspan><tspan x="1043" y="143">@</tspan><tspan x="1050" y="143">@</tspan><tspan x="1057" y="143">@</tspan><tspan x="1064" y="143">@</tspan><tspan x="1071" y="143">@</tspan><tspan x="1078" y="143">@</tspan><tspan x="1085" y="143">#</tspan><tspan x="1092" y="143">,</tspan></text>
    <text><tspan x="0" y="156">#</tspan><tspan x="7" y="156">@</tspan><tspan x="14" y="156">@</tspan><tspan x="21" y="156">@</tspan><tspan x="28" y="156">@</tspan><tspan x="112" y="156">:</tspan><tspan x="119" y="156">#</tspan><tspan x="126" y="156">@</tspan><tspan x="133" y="156">@</tspan><tspan x="140" y="156">@</tspan><tspan x="147" y="156">S</tspan><tspan x="175" y="156">+</tspan><tspan x="182" y="156">@</tspan><tspan x="189" y="156">@</tspan><tspan x="196" y="156">@</tspan><tspan x="203" y="156">@</tspan><tspan x="210" y="156">~</tspan><tspan x="301" y="156">#</tspan><tspan x="308" y="156">@</tspan><tspan x="315" y="156">@</tspan><tspan x="322" y="156">@</tspan><tspan x="329" y="156">@</tspan><tspan x="385" y="156">@</tspan><tspan x="392" y="156">@</tspan><tspan x="399" y="156">@</tspan><tspan x="406" y="156">@</tspan><tspan x="413" y="156">@</tspan><tspan x="476" y="156">+</tspan><tspan x="483" y="156">@</tspan><tspan x="490" y="156">@</tspan><tspan x="497" y="156">@</tspan><tspan x="504" y="156">@</tspan><tspan x="511" y="156">~</tspan><tspan x="588" y="156">:</tspan><tspan x="595" y="156">@</tspan><tspan x="602" y="156">@</tspan><tspan x="609" y="156">@</tspan><tspan x="616" y="156">@</tspan><tspan x="623" y="156">#</tspan><tspan x="651" y="156">~</tspan><tspan x="658" y="156">@</tspan><tspan x="665" y="156">@</tspan><tspan x="672" y="156">@</tspan><tspan x="679" y="156">@</tspan><tspan x="686" y="156">*</tspan><tspan x="770" y="156">=</tspan><tspan x="777" y="156">@</tspan><tspan x="784" y="156">@</tspan><tspan x="791" y="156">@</tspan><tspan x="798" y="156">@</tspan><tspan x="805" y="156">?</tspan><tspan x="896" y="156">:</tspan><tspan x="903" y="156">:</tspan><tspan x="910" y="156">:</tspan><tspan x="917" y="156">:</tspan><tspan x="924" y="156">,</tspan><tspan x="952" y="156">:</tspan><tspan x="959" y="156">:</tspan><tspan x="966" y="156">:</tspan><tspan x="973" y="156">:</tspan><tspan x="980" y="156">:</tspan><tspan x="1050" y="156">-</tspan><tspan x="1057" y="156">?</tspan><tspan x="1064" y="156">@</tspan><tspan x="1071" y="156">@</tspan><tspan x="1078" y="156">@</tspan><tspan x="1085" y="156">@</tspan><tspan x="1092" y="156">?</tspan></text>
    <text><tspan x="0" y="169">#</tspan><tspan x="7" y="169">@</tspan><tspan x="14" y="169">@</tspan><tspan x="21" y="169">@</tspan><tspan x="28" y="169">@</tspan><tspan x="35" y="169">=</tspan><tspan x="98" y="169">,</tspan><tspan x="105" y="169">*</tspan><tspan x="112" y="169">@</tspan><tspan x="119" y="169">@</tspan><tspan x="126" y="169">@</tspan><tspan x="133" y="169">@</tspan><tspan x="140" y="169">@</tspan><tspan x="147" y="169">S</tspan><tspan x="175" y="169">+</tspan><tspan x="182" y="169">@</tspan><tspan x="189" y="169">@</tspan><tspan x="196" y="169">@</tspan><tspan x="203" y="169">@</tspan><tspan x="210" y="169">~</tspan><tspan x="301" y="169">#</tspan><tspan x="308" y="169">@</tspan><tspan x="315" y="169">@</tspan><tspan x="322" y="169">@</tspan><tspan x="329" y="169">@</tspan><tspan x="385" y="169">S</tspan><tspan x="392" y="169">@</tspan><tspan x="399" y="169">@</tspan><tspan x="406" y="169">@</tspan><tspan x="413" y="169">@</tspan><tspan x="420" y="169">-</tspan><tspan x="476" y="169">?</tspan><tspan x="483" y="169">@</tspan><tspan x="490" y="169">@</tspan><tspan x="497" y="169">@</tspan><tspan x="504" y="169">@</tspan><tspan x="511" y="169">*</tspan><tspan x="581" y="169">~</tspan><tspan x="588" y="169">#</tspan><tspan x="595" y="169">@</tspan><tspan x="602" y="169">@</tspan><tspan x="609" y="169">@</tspan><tspan x="616" y="169">@</tspan><tspan x="623" y="169">#</tspan><tspan x="651" y="169">~</tspan><tspan x="658" y="169">@</tspan><tspan x="665" y="169">@</tspan><tspan x="672" y="169">@</tspan><tspan x="679" y="169">@</tspan><tspan x="686" y="169">*</tspan><tspan x="777" y="169">S</tspan><tspan x="784" y="169">@</tspan><tspan x="791" y="169">@</tspan><tspan x="798" y="169">@</tspan><tspan x="805" y="169">@</tspan><tspan x="812" y="169">%</tspan><tspan x="819" y="169">,</tspan><tspan x="889" y="169">+</tspan><tspan x="896" y="169">@</tspan><tspan x="903" y="169">@</tspan><tspan x="910" y="169">@</tspan><tspan x="917" y="169">@</tspan><tspan x="924" y="169">+</tspan><tspan x="952" y="169">*</tspan><tspan x="959" y="169">@</tspan><tspan x="966" y="169">@</tspan><tspan x="973" y="169">@</tspan><tspan x="980" y="169">@</tspan><tspan x="987" y="169">=</tspan><tspan x="1057" y="169">=</tspan><tspan x="1064" y="169">@</tspan><tspan x="1071" y="169">@</tspan><tspan x="1078" y="169">@</tspan><tspan x="1085" y="169">@</tspan><tspan x="1092" y="169">%</tspan></text>
    <text><tspan x="0" y="182">~</tspan><tspan x="7" y="182">@</tspan><tspan x="14" y="182">@</tspan><tspan x="21" y="182">@</tspan><tspan x="28" y="182">@</tspan><tspan x="35" y="182">@</tspan><tspan x="42" y="182">#</tspan><tspan x="49" y="182">*</tspan><tspan x="56" y="182">=</tspan><tspan x="63" y="182">-</tspan><tspan x="70" y="182">-</tspan><tspan x="77" y="182">+</tspan><tspan x="84" y="182">%</tspan><tspan x="91" y="182">#</tspan><tspan x="98" y="182">@</tspan><tspan x="105" y="182">@</tspan><tspan x="112" y="182">@</tspan><tspan x="119" y="182">@</tspan><tspan x="126" y="182">@</tspan><tspan x="133" y="182">@</tspan><tspan x="140" y="182">@</tspan><tspan x="147" y="182">S</tspan><tspan x="175" y="182">+</tspan><tspan x="182" y="182">@</tspan><tspan x="189" y="182">@</tspan><tspan x="196" y="182">@</tspan><tspan x="203" y="182">@</tspan><tspan x="210" y="182">~</tspan><tspan x="301" y="182">#</tspan><tspan x="308" y="182">@</tspan><tspan x="315" y="182">@</tspan><tspan x="322" y="182">@</tspan><tspan x="329" y="182">@</tspan><tspan x="385" y="182">+</tspan><tspan x="392" y="182">@</tspan><tspan x="399" y="182">@</tspan><tspan x="406" y="182">@</tspan><tspan x="413" y="182">@</tspan><tspan x="420" y="182">@</tspan><tspan x="427" y="182">%</tspan><tspan x="434" y="182">+</tspan><tspan x="441" y="182">+</tspan><tspan x="448" y="182">+</tspan><tspan x="455" y="182">+</tspan><tspan x="462" y="182">:</tspan><tspan x="476" y="182">-</tspan><tspan x="483" y="182">@</tspan><tspan x="490" y="182">@</tspan><tspan x="497" y="182">@</tspan><tspan x="504" y="182">@</tspan><tspan x="511" y="182">@</tspan><tspan x="518" y="182">#</tspan><tspan x="525" y="182">*</tspan><tspan x="532" y="182">=</tspan><tspan x="539" y="182">-</tspan><tspan x="546" y="182">:</tspan><tspan x="553" y="182">-</tspan><tspan x="560" y="182">=</tspan><tspan x="567" y="182">?</tspan><tspan x="574" y="182">#</tspan><tspan x="581" y="182">@</tspan><tspan x="588" y="182">@</tspan><tspan x="595" y="182">@</tspan><tspan x="602" y="182">@</tspan><tspan x="609" y="182">@</tspan><tspan x="616" y="182">@</tspan><tspan x="623" y="182">#</tspan><tspan x="651" y="182">~</tspan><tspan x="658" y="182">@</tspan><tspan x="665" y="182">@</tspan><tspan x="672" y="182">@</tspan><tspan x="679" y="182">@</tspan><tspan x="686" y="182">*</tspan><tspan x="784" y="182">%</tspan><tspan x="791" y="182">@</tspan><tspan x="798" y="182">@</tspan><tspan x="805" y="182">@</tspan><tspan x="812" y="182">@</tspan><tspan x="819" y="182">@</tspan><tspan x="826" y="182">S</tspan><tspan x="833" y="182">*</tspan><tspan x="840" y="182">=</tspan><tspan x="847" y="182">-</tspan><tspan x="854" y="182">:</tspan><tspan x="861" y="182">:</tspan><tspan x="868" y="182">~</tspan><tspan x="875" y="182">?</tspan><tspan x="882" y="182">#</tspan><tspan x="889" y="182">@</tspan><tspan x="896" y="182">@</tspan><tspan x="903" y="182">@</tspan><tspan x="910" y="182">@</tspan><tspan x="917" y="182">?</tspan><tspan x="952" y="182">,</tspan><tspan x="959" y="182">#</tspan><tspan x="966" y="182">@</tspan><tspan x="973" y="182">@</tspan><tspan x="980" y="182">@</tspan><tspan x="987" y="182">@</tspan><tspan x="994" y="182">S</tspan><tspan x="1001" y="182">+</tspan><tspan x="1008" y="182">=</tspan><tspan x="1015" y="182">-</tspan><tspan x="1022" y="182">:</tspan><tspan x="1029" y="182">~</tspan><tspan x="1036" y="182">=</tspan><tspan x="1043" y="182">*</tspan><tspan x="1050" y="182">S</tspan><tspan x="1057" y="182">@</tspan><tspan x="1064" y="182">@</tspan><tspan x="1071" y="182">@</tspan><tspan x="1078" y="182">@</tspan><tspan x="1085" y="182">#</tspan><tspan x="1092" y="182">:</tspan></text>
    <text><tspan x="7" y="195">,</tspan><tspan x="14" y="195">S</tspan><tspan x="21" y="195">@</tspan><tspan x="28" y="195">@</tspan><tspan x="35" y="195">@</tspan><tspan x="42" y="195">@</tspan><tspan x="49" y="195">@</tspan><tspan x="56" y="195">@</tspan><tspan x="63" y="195">@</tspan><tspan x="70" y="195">@</tspan><tspan x="77" y="195">@</tspan><tspan x="84" y="195">@</tspan><tspan x="91" y="195">@</tspan><tspan x="98" y="195">@</tspan><tspan x="105" y="195">#</tspan><tspan x="112" y="195">=</tspan><tspan x="119" y="195">#</tspan><tspan x="126" y="195">@</tspan><tspan x="133" y="195">@</tspan><tspan x="140" y="195">@</tspan><tspan x="147" y="195">S</tspan><tspan x="175" y="195">+</tspan><tspan x="182" y="195">@</tspan><tspan x="189" y="195">@</tspan><tspan x="196" y="195">@</tspan><tspan x="203" y="195">@</tspan><tspan x="210" y="195">~</tspan><tspan x="301" y="195">#</tspan><tspan x="308" y="195">@</tspan><tspan x="315" y="195">@</tspan><tspan x="322" y="195">@</tspan><tspan x="329" y="195">@</tspan><tspan x="392" y="195">*</tspan><tspan x="399" y="195">@</tspan><tspan x="406" y="195">@</tspan><tspan x="413" y="195">@</tspan><tspan x="420" y="195">@</tspan><tspan x="427" y="195">@</tspan><tspan x="434" y="195">@</tspan><tspan x="441" y="195">@</tspan><tspan x="448" y="195">@</tspan><tspan x="455" y="195">@</tspan><tspan x="462" y="195">:</tspan><tspan x="483" y="195">-</tspan><tspan x="490" y="195">#</tspan><tspan x="497" y="195">@</tspan><tspan x="504" y="195">@</tspan><tspan x="511" y="195">@</tspan><tspan x="518" y="195">@</tspan><tspan x="525" y="195">@</tspan><tspan x="532" y="195">@</tspan><tspan x="539" y="195">@</tspan><tspan x="546" y="195">@</tspan><tspan x="553" y="195">@</tspan><tspan x="560" y="195">@</tspan><tspan x="567" y="195">@</tspan><tspan x="574" y="195">@</tspan><tspan x="581" y="195">@</tspan><tspan x="588" y="195">S</tspan><tspan x="595" y="195">#</tspan><tspan x="602" y="195">@</tspan><tspan x="609" y="195">@</tspan><tspan x="616" y="195">@</tspan><tspan x="623" y="195">#</tspan><tspan x="651" y="195">~</tspan><tspan x="658" y="195">@</tspan><tspan x="665" y="195">@</tspan><tspan x="672" y="195">@</tspan><tspan x="679" y="195">@</tspan><tspan x="686" y="195">*</tspan><tspan x="791" y="195">=</tspan><tspan x="798" y="195">#</tspan><tspan x="805" y="195">@</tspan><tspan x="812" y="195">@</tspan><tspan x="819" y="195">@</tspan><tspan x="826" y="195">@</tspan><tspan x="833" y="195">@</tspan><tspan x="840" y="195">@</tspan><tspan x="847" y="195">@</tspan><tspan x="854" y="195">@</tspan><tspan x="861" y="195">@</tspan><tspan x="868" y="195">@</tspan><tspan x="875" y="195">@</tspan><tspan x="882" y="195">@</tspan><tspan x="889" y="195">@</tspan><tspan x="896" y="195">@</tspan><tspan x="903" y="195">%</tspan><tspan x="910" y="195">-</tspan><tspan x="966" y="195">?</tspan><tspan x="973" y="195">@</tspan><tspan x="980" y="195">@</tspan><tspan x="987" y="195">@</tspan><tspan x="994" y="195">@</tspan><tspan x="1001" y="195">@</tspan><tspan x="1008" y="195">@</tspan><tspan x="1015" y="195">@</tspan><tspan x="1022" y="195">@</tspan><tspan x="1029" y="195">@</tspan><tspan x="1036" y="195">@</tspan><tspan x="1043" y="195">@</tspan><tspan x="1050" y="195">@</tspan><tspan x="1057" y="195">@</tspan><tspan x="1064" y="195">@</tspan><tspan x="1071" y="195">@</tspan><tspan x="1078" y="195">+</tspan></text>
    <text><tspan x="21" y="208">,</tspan><tspan x="28" y="208">~</tspan><tspan x="35" y="208">?</tspan><tspan x="42" y="208">%</tspan><tspan x="49" y="208">%</tspan><tspan x="56" y="208">%</tspan><tspan x="63" y="208">%</tspan><tspan x="70" y="208">%</tspan><tspan x="77" y="208">%</tspan><tspan x="84" y="208">*</tspan><tspan x="91" y="208">+</tspan><tspan x="98" y="208">:</tspan><tspan x="119" y="208">-</tspan><tspan x="126" y="208">+</tspan><tspan x="133" y="208">+</tspan><tspan x="140" y="208">+</tspan><tspan x="147" y="208">=</tspan><tspan x="175" y="208">=</tspan><tspan x="182" y="208">%</tspan><tspan x="189" y="208">%</tspan><tspan x="196" y="208">%</tspan><tspan x="203" y="208">%</tspan><tspan x="210" y="208">-</tspan><tspan x="301" y="208">?</tspan><tspan x="308" y="208">%</tspan><tspan x="315" y="208">%</tspan><tspan x="322" y="208">%</tspan><tspan x="329" y="208">%</tspan><tspan x="406" y="208">+</tspan><tspan x="413" y="208">%</tspan><tspan x="420" y="208">@</tspan><tspan x="427" y="208">@</tspan><tspan x="434" y="208">@</tspan><tspan x="441" y="208">@</tspan><tspan x="448" y="208">@</tspan><tspan x="455" y="208">@</tspan><tspan x="497" y="208">~</tspan><tspan x="504" y="208">+</tspan><tspan x="511" y="208">?</tspan><tspan x="518" y="208">S</tspan><tspan x="525" y="208">@</tspan><tspan x="532" y="208">@</tspan><tspan x="539" y="208">@</tspan><tspan x="546" y="208">@</tspan><tspan x="553" y="208">@</tspan><tspan x="560" y="208">#</tspan><tspan x="567" y="208">%</tspan><tspan x="574" y="208">+</tspan><tspan x="581" y="208">:</tspan><tspan x="595" y="208">=</tspan><tspan x="602" y="208">%</tspan><tspan x="609" y="208">%</tspan><tspan x="616" y="208">%</tspan><tspan x="623" y="208">?</tspan><tspan x="651" y="208">~</tspan><tspan x="658" y="208">@</tspan><tspan x="665" y="208">@</tspan><tspan x="672" y="208">@</tspan><tspan x="679" y="208">@</tspan><tspan x="686" y="208">*</tspan><tspan x="805" y="208">:</tspan><tspan x="812" y="208">=</tspan><tspan x="819" y="208">*</tspan><tspan x="826" y="208">%</tspan><tspan x="833" y="208">S</tspan><tspan x="840" y="208">#</tspan><tspan x="847" y="208">@</tspan><tspan x="854" y="208">@</tspan><tspan x="861" y="208">@</tspan><tspan x="868" y="208">@</tspan><tspan x="875" y="208">S</tspan><tspan x="882" y="208">?</tspan><tspan x="889" y="208">=</tspan><tspan x="896" y="208">,</tspan><tspan x="980" y="208">~</tspan><tspan x="987" y="208">*</tspan><tspan x="994" y="208">?</tspan><tspan x="1001" y="208">S</tspan><tspan x="1008" y="208">@</tspan><tspan x="1015" y="208">@</tspan><tspan x="1022" y="208">@</tspan><tspan x="1029" y="208">@</tspan><tspan x="1036" y="208">@</tspan><tspan x="1043" y="208">S</tspan><tspan x="1050" y="208">?</tspan><tspan x="1057" y="208">*</tspan><tspan x="1064" y="208">~</tspan></text>
  </g>
</svg>